<?xml version="1.0" standalone="no"?>
<!DOCTYPE svg PUBLIC "-//W3C//DTD SVG 20010904//EN"
 "http://www.w3.org/TR/2001/REC-SVG-20010904/DTD/svg10.dtd">
<svg version="1.0" xmlns="http://www.w3.org/2000/svg"
 width="512.000000pt" height="512.000000pt" viewBox="0 0 512.000000 512.000000"
 preserveAspectRatio="xMidYMid meet">

<g transform="translate(0.000000,512.000000) scale(0.100000,-0.100000)"
fill="red" stroke="none">
<path d="M2390 5113 c-260 -16 -590 -95 -840 -202 -298 -128 -596 -335 -830
-577 -384 -399 -615 -877 -696 -1439 -24 -165 -24 -505 0 -670 67 -471 237
-873 525 -1245 80 -104 309 -336 410 -415 369 -290 772 -465 1236 -537 185
-28 521 -30 700 -4 226 33 426 85 617 162 683 274 1227 846 1465 1539 97 282
136 519 136 830 1 423 -74 751 -258 1130 -450 927 -1424 1491 -2465 1428z
m-350 -1798 l0 -475 520 0 520 0 0 475 0 475 285 0 285 0 0 -1230 0 -1230
-285 0 -285 0 0 495 0 495 -517 -2 -518 -3 -3 -492 -2 -493 -285 0 -285 0 0
1230 0 1230 285 0 285 0 0 -475z"/>
</g>
</svg>
