<?xml version="1.0" encoding="UTF-8"?>
<svg version="1.1" xmlns="http://www.w3.org/2000/svg" width="500" height="500">
<path d="M0 0 C6.11228297 5.82237232 10.51663228 12.45691988 14.5390625 19.8203125 C14.89814697 20.47128906 15.25723145 21.12226563 15.62719727 21.79296875 C16.49440863 23.44818026 17.24500314 25.16333537 17.9765625 26.8828125 C17.6465625 27.8728125 17.3165625 28.8628125 16.9765625 29.8828125 C10.16316762 30.4069198 4.33318062 28.45533416 -2.1484375 26.5078125 C-4.41140778 25.85854805 -6.67572174 25.21394722 -8.94140625 24.57421875 C-9.95227295 24.28490479 -10.96313965 23.99559082 -12.00463867 23.69750977 C-33.48081867 17.90163329 -60.10537466 18.18555917 -80.0234375 28.8828125 C-82.5998751 30.67790433 -84.97917657 32.58594176 -87.36328125 34.62890625 C-89.36503874 36.32496215 -91.36446416 37.9157177 -93.46484375 39.48046875 C-94.05467041 39.92108643 -94.64449707 40.3617041 -95.25219727 40.81567383 C-96.40912805 41.67599658 -97.56963915 42.53153113 -98.73413086 43.3815918 C-102.89037676 46.50653632 -104.67820051 48.55083437 -105.4375 53.6796875 C-105.50710937 54.65421875 -105.57671875 55.62875 -105.6484375 56.6328125 C-105.72320312 57.61765625 -105.79796875 58.6025 -105.875 59.6171875 C-105.92398438 60.36484375 -105.97296875 61.1125 -106.0234375 61.8828125 C-105.41757813 61.53347656 -104.81171875 61.18414062 -104.1875 60.82421875 C-97.98424739 57.45537541 -93.04506168 56.0328472 -86.0234375 55.8828125 C-84.97414063 55.83253906 -83.92484375 55.78226562 -82.84375 55.73046875 C-66.80092854 55.27574025 -51.9565812 59.80839405 -36.84155273 64.65112305 C-33.96670866 65.56847095 -31.08460075 66.45966824 -28.20117188 67.34960938 C-12.59179629 72.25592023 1.37088286 77.89955082 12.9765625 89.8828125 C13.79125 90.71167969 14.6059375 91.54054688 15.4453125 92.39453125 C27.21844549 104.8748167 28.51541266 116.91544547 28.21484375 133.56640625 C27.68129009 148.66098091 21.06779175 163.83698395 10.43359375 174.65234375 C-3.37972041 187.19193418 -18.99930513 194.63020514 -37.0234375 198.8828125 C-37.6947168 199.04652344 -38.36599609 199.21023438 -39.05761719 199.37890625 C-58.86530058 204.01250642 -81.31789935 203.9470337 -101.0234375 198.8828125 C-101.68553223 198.71652344 -102.34762695 198.55023438 -103.02978516 198.37890625 C-125.66008913 192.54161743 -145.46291784 179.12377893 -157.8359375 159.0078125 C-163.68739026 148.36633329 -165.0234375 141.35947369 -165.0234375 128.8828125 C-142.5834375 128.8828125 -120.1434375 128.8828125 -97.0234375 128.8828125 C-93.0634375 135.8128125 -93.0634375 135.8128125 -89.0234375 142.8828125 C-78.58244074 149.47058427 -68.13349806 149.9604248 -56.0234375 148.8828125 C-52.38795249 147.9549625 -49.31484467 146.64910643 -46.0234375 144.8828125 C-45.0334375 144.5528125 -44.0434375 144.2228125 -43.0234375 143.8828125 C-42.21873901 142.18168258 -42.21873901 142.18168258 -42.0234375 139.8828125 C-41.7140625 138.243125 -41.7140625 138.243125 -41.3984375 136.5703125 C-42.10112686 132.42444527 -42.61206235 131.85814832 -45.7109375 129.2578125 C-56.51585694 121.93922546 -69.38870565 119.33842285 -81.8984375 116.3828125 C-110.89811927 109.49957219 -110.89811927 109.49957219 -123.2734375 103.0703125 C-123.93472656 102.73193359 -124.59601563 102.39355469 -125.27734375 102.04492188 C-139.59141366 94.52656088 -152.66940455 83.81466092 -158.34765625 68.25390625 C-163.27495345 51.87363745 -163.05562943 32.43581685 -155.16992188 17.1015625 C-146.10002007 0.80098351 -129.72631121 -10.92085983 -112.0234375 -16.1171875 C-74.97798282 -26.06118194 -31.03103742 -25.9173084 0 0 Z " fill="#020930" transform="translate(348.0234375,135.1171875)"/>
<path d="M0 0 C1.093125 0.00257813 2.18625 0.00515625 3.3125 0.0078125 C4.405625 0.00523437 5.49875 0.00265625 6.625 0 C9.3125 0.1328125 9.3125 0.1328125 10.3125 1.1328125 C10.45365161 3.80340101 10.35497107 6.45713488 10.3125 9.1328125 C5.3625 9.1328125 0.4125 9.1328125 -4.6875 9.1328125 C-3.69302127 0.18250396 -3.69302127 0.18250396 0 0 Z " fill="#0E1630" transform="translate(275.6875,168.8671875)"/>
<path d="M0 0 C1.485 0.99 1.485 0.99 3 2 C1.43240263 3.80273697 0.48991079 4.88568748 -1.875 5.4375 C-4.86740296 6.22960667 -6.63255835 8.03675571 -9 10 C-10.2065625 10.6496875 -10.2065625 10.6496875 -11.4375 11.3125 C-15.00368976 13.66096643 -17.32664631 16.7091788 -20 20 C-20.48082031 20.53238281 -20.96164063 21.06476563 -21.45703125 21.61328125 C-24.23558628 24.7121308 -25.41468182 26.90277275 -26 31 C-26.66 31.33 -27.32 31.66 -28 32 C-29.13350534 34.01669827 -29.13350534 34.01669827 -30 36 C-31 33 -31 33 -30.171875 30.72265625 C-22.89244769 17.10372769 -12.68401888 8.36960078 0 0 Z " fill="#080B25" transform="translate(221,125)"/>
<path d="M0 0 C2 0.66666667 4 1.33333333 6 2 C8.14255793 1.61067144 8.14255793 1.61067144 10 1 C10.38218767 2.65614657 10.71395102 4.32457024 11 6 C10 7 10 7 7.49609375 7.09765625 C5.98208984 7.08025391 5.98208984 7.08025391 4.4375 7.0625 C3.42558594 7.05347656 2.41367187 7.04445312 1.37109375 7.03515625 C0.58863281 7.02355469 -0.19382812 7.01195312 -1 7 C-1.04254356 5.00045254 -1.04080783 2.99958364 -1 1 C-0.67 0.67 -0.34 0.34 0 0 Z " fill="#131B3F" transform="translate(274,170)"/>
<path d="M0 0 C0.66 0.99 1.32 1.98 2 3 C-5.34352136 7.92076124 -10.49983969 10.68752004 -19.5 9.5625 C-20.325 9.376875 -21.15 9.19125 -22 9 C-22 8.67 -22 8.34 -22 8 C-20.71416016 7.85304688 -20.71416016 7.85304688 -19.40234375 7.703125 C-12.61832865 6.81592573 -7.69300651 5.79533768 -2 2 C-1.34 2 -0.68 2 0 2 C0 1.34 0 0.68 0 0 Z " fill="#050822" transform="translate(305,277)"/>
<path d="M0 0 C-6.21754971 4.14503314 -13.66250018 5.32060187 -21 6 C-21 5.34 -21 4.68 -21 4 C-18.62734939 3.32382476 -16.25244645 2.65891774 -13.875 2 C-13.20984375 1.80921875 -12.5446875 1.6184375 -11.859375 1.421875 C-7.8013795 0.30791545 -4.20314026 -0.20950232 0 0 Z " fill="#090C26" transform="translate(258,115)"/>
<path d="M0 0 C0.66 0.66 1.32 1.32 2 2 C4.57061311 2.64767793 4.57061311 2.64767793 7 3 C7 2.01 7 1.02 7 0 C7.66 0 8.32 0 9 0 C9.5625 1.9375 9.5625 1.9375 10 4 C9 5 9 5 5.6875 5.1875 C2.35361682 5.01798052 0.74308013 4.75557129 -2 3 C-1.34 2.01 -0.68 1.02 0 0 Z " fill="#050821" transform="translate(356,160)"/>
<path d="M0 0 C0.66 0 1.32 0 2 0 C2.26554688 0.91523438 2.53109375 1.83046875 2.8046875 2.7734375 C3.15789062 3.96195312 3.51109375 5.15046875 3.875 6.375 C4.39707031 8.15003906 4.39707031 8.15003906 4.9296875 9.9609375 C5.77687419 13.06491558 5.77687419 13.06491558 8 15 C7.625 17.125 7.625 17.125 7 19 C3.56203749 12.71456473 1.25353319 7.06536889 0 0 Z " fill="#070A23" transform="translate(184,276)"/>
<path d="M0 0 C1.79133978 -0.05391993 3.58313899 -0.09275571 5.375 -0.125 C6.37273437 -0.14820313 7.37046875 -0.17140625 8.3984375 -0.1953125 C11 0 11 0 13 2 C14.31747324 2.69748583 15.64914193 3.36959957 17 4 C11.08507728 3.54775239 5.64800112 2.8417395 0 1 C0 0.67 0 0.34 0 0 Z " fill="#0C0F29" transform="translate(240,331)"/>
<path d="M0 0 C0.8971875 0.309375 0.8971875 0.309375 1.8125 0.625 C0.6928014 1.63093243 -0.4334412 2.6295849 -1.5625 3.625 C-2.18898437 4.181875 -2.81546875 4.73875 -3.4609375 5.3125 C-5.1875 6.625 -5.1875 6.625 -7.1875 6.625 C-4.6484375 -0.796875 -4.6484375 -0.796875 0 0 Z " fill="#050921" transform="translate(257.1875,170.375)"/>
<path d="M0 0 C1.32 0 2.64 0 4 0 C5.0161692 4.62921525 4.83796731 8.34462607 4 13 C3.34 12.67 2.68 12.34 2 12 C2.03480469 11.07767578 2.03480469 11.07767578 2.0703125 10.13671875 C2.08835937 9.32847656 2.10640625 8.52023437 2.125 7.6875 C2.15980469 6.48673828 2.15980469 6.48673828 2.1953125 5.26171875 C2.15817322 2.71611424 2.15817322 2.71611424 0 0 Z " fill="#060922" transform="translate(304,265)"/>
<path d="M0 0 C0.99 0 1.98 0 3 0 C5 3 5 3 5 6 C5.99 6.33 6.98 6.66 8 7 C7.67 7.99 7.34 8.98 7 10 C5.83043409 8.52312468 4.66441854 7.04343707 3.5 5.5625 C2.8503125 4.73878906 2.200625 3.91507812 1.53125 3.06640625 C0 1 0 1 0 0 Z " fill="#080A26" transform="translate(193,297)"/>
<path d="M0 0 C0.99 0.33 1.98 0.66 3 1 C4.4158649 3.91038896 5.29922267 6.846502 6 10 C3.03595495 7.19195732 0.55500981 4.81684226 -1 1 C-0.67 0.67 -0.34 0.34 0 0 Z " fill="#050922" transform="translate(194,209)"/>
<path d="M0 0 C0.33 0.99 0.66 1.98 1 3 C0.01 3.33 -0.98 3.66 -2 4 C-2.66 3.01 -3.32 2.02 -4 1 C-2 0 -2 0 0 0 Z M-8 1 C-5.875 1.375 -5.875 1.375 -4 2 C-4.66 2.66 -5.32 3.32 -6 4 C-8.125 3.625 -8.125 3.625 -10 3 C-9.34 2.34 -8.68 1.68 -8 1 Z " fill="#192049" transform="translate(284,171)"/>
<path d="M0 0 C1.32 0.66 2.64 1.32 4 2 C3.21625 2.598125 2.4325 3.19625 1.625 3.8125 C-1.14574323 5.91085249 -1.14574323 5.91085249 -3 9 C-3 7.35 -3 5.7 -3 4 C-2.34 4 -1.68 4 -1 4 C-0.67 2.68 -0.34 1.36 0 0 Z " fill="#050A21" transform="translate(245,177)"/>
<path d="M0 0 C3.3 0 6.6 0 10 0 C10 0.33 10 0.66 10 1 C6.04 1.99 2.08 2.98 -2 4 C-2 3.34 -2 2.68 -2 2 C-1.34 2 -0.68 2 0 2 C0 1.34 0 0.68 0 0 Z " fill="#050921" transform="translate(278,156)"/>
<path d="M0 0 C3.33557632 2.9905167 5.15083921 5.93184627 7 10 C6.01 9.67 5.02 9.34 4 9 C3.67 8.34 3.34 7.68 3 7 C2.01 6.34 1.02 5.68 0 5 C-0.1875 2.375 -0.1875 2.375 0 0 Z " fill="#04071F" transform="translate(354,143)"/>
<path d="M0 0 C1.98 1.65 3.96 3.3 6 5 C5.34 5.66 4.68 6.32 4 7 C2.02 5.35 0.04 3.7 -2 2 C-1.34 1.34 -0.68 0.68 0 0 Z " fill="#050821" transform="translate(209,312)"/>
<path d="M0 0 C2 1 2 1 2 1 Z " fill="#000000" transform="translate(264,112)"/>
<path d="" fill="#000000" transform="translate(0,0)"/>
</svg>
