<?xml version="1.0" standalone="no"?>
<!DOCTYPE svg PUBLIC "-//W3C//DTD SVG 20010904//EN"
 "http://www.w3.org/TR/2001/REC-SVG-20010904/DTD/svg10.dtd">
<svg version="1.0" xmlns="http://www.w3.org/2000/svg"
 width="12" height="12" viewBox="0 0 1200.000000 1200.000000"
 preserveAspectRatio="xMidYMid meet">

<g transform="translate(0.000000,1200.000000) scale(0.100000,-0.100000)"
fill="#000000" stroke="none">
<path d="M6822 7459 c-143 -24 -282 -149 -317 -287 -11 -42 -13 -44 -77 -66
-127 -42 -228 -150 -262 -278 -15 -57 -17 -137 -14 -843 l3 -780 23 -58 c34
-84 119 -172 207 -214 38 -18 77 -33 87 -33 12 0 21 -13 29 -42 28 -108 117
-221 211 -269 95 -48 105 -49 875 -49 493 0 739 4 775 11 158 33 284 154 324
309 11 43 13 46 74 66 125 44 224 136 273 254 l22 55 0 785 0 785 -32 67 c-56
118 -150 201 -270 238 -55 17 -57 19 -73 67 -50 152 -171 258 -327 283 -73 12
-1458 11 -1531 -1z m1590 -165 c51 -26 102 -80 123 -131 l14 -33 -854 0 -855
0 0 -865 0 -865 -99 0 -99 0 -7 785 c-4 432 -5 822 -3 868 5 92 21 132 77 190
72 77 13 71 826 77 402 3 753 3 780 1 28 -2 71 -14 97 -27z m343 -336 c60 -32
105 -77 137 -138 l23 -45 3 -739 c3 -819 5 -790 -62 -878 -30 -39 -117 -98
-145 -98 -8 0 -11 233 -11 855 l0 855 -860 0 -860 0 0 110 0 110 863 -2 862
-3 50 -27z m-2265 -241 c0 -145 3 -534 7 -865 l6 -602 859 0 858 0 0 -110 0
-110 -843 0 c-956 0 -912 -3 -998 77 -33 31 -55 63 -69 100 -20 54 -20 69 -18
822 3 764 3 766 25 806 32 60 127 143 166 145 4 0 7 -119 7 -263z m1730 -702
l0 -615 -620 0 -620 0 0 615 0 615 620 0 620 0 0 -615z m335 -255 c0 -860 0
-865 -21 -910 -27 -57 -87 -117 -144 -144 -45 -21 -52 -21 -800 -21 l-755 0
-51 27 c-56 30 -109 84 -130 134 -8 19 -14 36 -14 39 0 3 387 5 860 5 l860 0
0 863 c0 475 3 867 7 871 4 4 48 5 98 4 l90 -3 0 -865z"/>
<path d="M3632 7449 c-150 -29 -286 -156 -322 -301 -12 -45 -14 -47 -61 -58
-103 -25 -213 -119 -267 -230 l-27 -55 0 -276 0 -275 38 -76 c54 -109 141
-182 264 -218 35 -11 42 -18 47 -44 11 -60 66 -157 114 -204 60 -58 139 -98
223 -112 40 -6 305 -10 704 -10 352 0 650 0 663 0 21 0 22 -3 22 -100 l0 -100
-1040 -2 -1040 -3 0 -418 0 -417 1103 0 c1225 0 1152 -4 1263 68 88 57 154
141 183 233 10 31 18 38 45 43 60 11 152 65 201 117 53 56 90 131 105 209 13
68 13 452 0 520 -30 157 -143 282 -297 327 -60 17 -62 18 -67 58 -16 107 -99
216 -204 267 l-67 33 -710 5 -710 5 -3 83 -3 82 1036 0 1035 0 0 430 0 430
-1092 -1 c-601 -1 -1112 -5 -1136 -10z m2086 -236 l3 -103 -1136 0 c-779 0
-1135 3 -1135 10 0 36 58 110 123 160 50 38 80 39 1127 37 l1015 -2 3 -102z
m-3 -358 l0 -110 -1210 -3 -1210 -2 2 -320 c3 -363 8 -346 -79 -291 -54 34
-92 82 -113 140 -22 63 -22 465 0 518 35 84 106 146 193 169 37 10 302 12
1232 11 l1185 -2 0 -110z m-2066 -582 l-3 -328 939 -5 940 -5 45 -27 c60 -35
94 -72 122 -133 22 -48 23 -60 23 -300 l0 -250 -27 -51 c-30 -56 -93 -117
-139 -133 l-29 -10 0 355 0 354 -942 0 c-1064 0 -984 -6 -1066 80 -69 70 -72
90 -72 457 l0 323 106 0 106 0 -3 -327z m1571 -8 c52 -26 90 -68 115 -128 8
-20 15 -39 15 -42 0 -3 -351 -5 -780 -5 l-780 0 0 100 0 100 690 0 691 0 49
-25z m155 -1012 c0 -323 -1 -340 -21 -384 -31 -67 -78 -114 -146 -149 l-61
-30 -1029 0 -1028 0 0 95 0 95 1040 0 1040 0 0 353 c0 195 2 356 4 358 2 2 49
3 103 2 l98 -1 0 -339z m-347 -123 l3 -110 -971 0 -970 0 0 113 0 112 968 -2
967 -2 3 -111z"/>
</g>
</svg>
